<svg fill="none" height="100%" width="100%" viewBox="0 0 400 400" xmlns:xlink="http://www.w3.org/1999/xlink" xmlns="http://www.w3.org/2000/svg"><g visibility="visible" id="i0"><animate repeatCount="indefinite" begin="0s" calcMode="discrete" dur="2.336s" values="visible; hidden; hidden" keyTimes="0; 0.400057; 1" attributeName="visibility" /><g transform="translate(667.815,235.628)"><animateTransform repeatCount="indefinite" type="translate" attributeName="transform" dur="2.336s" begin="0s" calcMode="spline" values="667.815 235.628; 252.192 235.628; 252.192 235.628; 597.415 235.628; 597.415 235.628" keyTimes="0; 0.214286; 0.314286; 0.5; 1" keySplines="0.167 0.264 0.13 1; 0 0 1 1; 0.167 0 0.23 1; 0 0 1 1" fill="freeze" /><g transform="scale(0.722,0.722) translate(-200,-200)"><g id="i1" transform="matrix(1,0,0,1,200,200)"><path fill="#121e6c" fill-rule="evenodd" d="M105.642,89.096C105.642,89.096,-105.642,89.096,-105.642,89.096C-118.825,89.096,-129.512,78.409,-129.512,65.226C-129.512,65.226,-129.512,-65.226,-129.512,-65.226C-129.512,-78.409,-118.825,-89.096,-105.642,-89.096C-105.642,-89.096,105.642,-89.096,105.642,-89.096C118.825,-89.096,129.512,-78.409,129.512,-65.226C129.512,-65.226,129.512,65.226,129.512,65.226C129.512,78.409,118.825,89.096,105.642,89.096Z" /></g><g id="i2" transform="matrix(1,0,0,1,167.097,199.886)"><path fill="#6c759b" fill-rule="evenodd" d="M8.521,20.241C8.175,20.245,7.824,20.141,7.523,19.922C6.782,19.381,6.62,18.342,7.161,17.601C10.401,13.162,12.213,6.517,12.133,-0.631C12.061,-7.005,10.431,-13.137,7.658,-17.454C7.162,-18.226,7.386,-19.254,8.158,-19.75C8.93,-20.245,9.958,-20.022,10.454,-19.25C13.6,-14.35,15.376,-7.751,15.456,-0.668C15.544,7.181,13.499,14.554,9.845,19.559C9.524,19.999,9.027,20.235,8.521,20.241ZM2.449,15.767C5.604,11.442,7.303,5.639,7.233,-0.575C7.17,-6.129,5.659,-11.445,2.976,-15.544C2.474,-16.312,1.444,-16.527,0.676,-16.025C-0.091,-15.522,-0.306,-14.493,0.196,-13.725C2.536,-10.149,3.855,-5.466,3.911,-0.538C3.972,4.885,2.461,10.114,-0.235,13.809C-0.775,14.551,-0.613,15.59,0.128,16.13C0.429,16.35,0.779,16.453,1.125,16.449C1.631,16.444,2.128,16.208,2.449,15.767ZM-5.031,11.906C-2.576,8.438,-1.251,4.039,-1.302,-0.479C-1.349,-4.589,-2.49,-8.491,-4.602,-11.762C-5.1,-12.533,-6.127,-12.754,-6.898,-12.257C-7.669,-11.759,-7.89,-10.731,-7.392,-9.96C-5.621,-7.216,-4.664,-3.925,-4.624,-0.442C-4.581,3.382,-5.689,7.085,-7.743,9.986C-8.273,10.735,-8.096,11.772,-7.347,12.302C-7.05,12.512,-6.708,12.611,-6.37,12.608C-5.855,12.602,-5.351,12.358,-5.031,11.906ZM-12.475,8.321C-10.204,5.846,-8.973,2.751,-9.008,-0.393C-9.04,-3.251,-10.08,-5.985,-12.015,-8.298C-12.604,-9.002,-13.651,-9.095,-14.355,-8.507C-15.059,-7.918,-15.152,-6.87,-14.563,-6.167C-13.126,-4.448,-12.354,-2.439,-12.33,-0.355C-12.304,1.974,-13.2,4.197,-14.923,6.075C-15.543,6.751,-15.498,7.802,-14.822,8.422C-14.498,8.719,-14.088,8.864,-13.681,8.859C-13.238,8.854,-12.798,8.673,-12.475,8.321Z" /></g><g id="i3" transform="matrix(1,0,0,1,114.978,200)"><path fill="#6c759b" fill-rule="evenodd" d="M5.967,-10.095C5.967,-10.095,17.601,-10.076,17.601,-10.076C16.502,-14.549,12.481,-17.874,7.669,-17.882C7.669,-17.882,5.98,-17.885,5.98,-17.885C5.98,-17.885,5.967,-10.095,5.967,-10.095ZM5.951,-1.072C5.951,-1.072,17.897,-1.051,17.897,-1.051C17.897,-1.051,17.908,-7.606,17.908,-7.606C17.908,-7.606,5.963,-7.626,5.963,-7.626C5.963,-7.626,5.951,-1.072,5.951,-1.072ZM5.936,7.861C9.713,7.917,14.515,7.969,17.866,7.973C17.869,7.871,17.882,7.772,17.882,7.669C17.882,7.669,17.892,1.417,17.892,1.417C17.892,1.417,5.947,1.396,5.947,1.396C5.947,1.396,5.936,7.861,5.936,7.861ZM-17.567,-10.135C-17.567,-10.135,-4.457,-10.113,-4.457,-10.113C-3.776,-10.111,-3.224,-9.558,-3.225,-8.876C-3.225,-8.876,-3.271,17.889,-3.271,17.889C-3.271,17.889,7.608,17.909,7.608,17.909C12.305,17.917,16.261,14.761,17.484,10.454C17.39,10.454,17.308,10.454,17.211,10.454C14.553,10.45,10.601,10.403,4.68,10.311C4.597,10.31,4.524,10.277,4.445,10.26C4.366,10.243,4.283,10.24,4.21,10.208C4.139,10.177,4.084,10.122,4.02,10.079C3.953,10.033,3.878,9.999,3.82,9.941C3.766,9.885,3.734,9.812,3.691,9.747C3.646,9.68,3.591,9.622,3.56,9.547C3.528,9.47,3.526,9.381,3.51,9.297C3.496,9.222,3.465,9.153,3.466,9.075C3.466,9.075,3.512,-17.889,3.512,-17.889C3.512,-17.889,-7.609,-17.908,-7.609,-17.908C-12.421,-17.916,-16.454,-14.604,-17.567,-10.135ZM-17.894,-1.113C-17.894,-1.113,-5.707,-1.091,-5.707,-1.091C-5.707,-1.091,-5.696,-7.646,-5.696,-7.646C-5.696,-7.646,-17.883,-7.667,-17.883,-7.667C-17.883,-7.667,-17.894,-1.113,-17.894,-1.113ZM-17.908,7.2C-17.908,7.2,-5.721,7.221,-5.721,7.221C-5.721,7.221,-5.711,1.376,-5.711,1.376C-5.711,1.376,-17.898,1.355,-17.898,1.355C-17.898,1.355,-17.908,7.2,-17.908,7.2ZM-17.705,9.669C-16.759,14.348,-12.629,17.874,-7.67,17.883C-7.67,17.883,-5.739,17.885,-5.739,17.885C-5.739,17.885,-5.725,9.689,-5.725,9.689C-5.725,9.689,-17.705,9.669,-17.705,9.669Z" /></g></g></g></g><g transform="matrix(0.71,0,0,0.71,58,77)" id="i4"><g id="i5" transform="matrix(1,0,0,1,200.448,200.402)"><path fill="#cfd1df" fill-rule="evenodd" d="M-96.174,116.784C-96.174,127.904,-96.174,162.332,-50.092,162.332C-50.092,162.332,54.261,162.332,54.261,162.332C75.217,162.332,96.174,150.143,96.174,120.526C96.174,120.526,96.174,-115.929,96.174,-115.929C96.174,-137.101,89.117,-162.332,51.802,-162.332C51.802,-162.332,-24.859,-162.157,-53.299,-162.157C-81.74,-162.157,-96.174,-144.37,-96.174,-119.243C-96.174,-119.243,-96.174,116.784,-96.174,116.784Z" /></g><g id="i6" transform="matrix(1,0,0,1,200.445,77.921)"><path fill="#dce6f5" fill-rule="evenodd" d="M93.314,33.588C93.314,33.588,93.314,33.733,93.314,33.733C93.314,33.733,-93.313,33.733,-93.313,33.733C-93.313,33.733,-93.313,33.588,-93.313,33.588C-93.313,33.588,-88.64,34.138,-88.64,30.434C-88.64,26.73,-89.262,1.584,-87.193,-9.397C-85.138,-20.379,-80.465,-32.619,-60.282,-33.357C-39.143,-34.138,45.206,-33.907,56.665,-33.704C68.138,-33.502,86.051,-28.756,87.367,-6.099C88.669,16.559,88.191,27.555,88.191,30.014C88.191,32.488,89.176,33.588,93.314,33.588Z" /></g><g id="i7" transform="matrix(1,0,0,1,200.447,203.26)"><path fill="#edeef2" fill-rule="evenodd" d="M93.312,-91.749C93.312,-91.749,93.312,117.672,93.312,117.672C93.312,147.289,72.979,159.477,52.647,159.477C52.647,159.477,-48.601,159.477,-48.601,159.477C-93.312,159.477,-93.312,125.05,-93.312,113.93C-93.312,113.93,-93.312,-91.749,-93.312,-91.749C-93.312,-91.749,-88.64,-91.195,-88.64,-94.903C-88.64,-98.611,-89.258,-123.743,-87.197,-134.73C-85.137,-145.717,-80.465,-157.95,-60.279,-158.696C-39.15,-159.477,45.197,-159.246,56.665,-159.04C68.132,-158.834,86.055,-154.095,87.36,-131.434C88.665,-108.773,88.184,-97.786,88.184,-95.314C88.184,-92.842,89.17,-91.749,93.312,-91.749Z" /></g><g id="i8" transform="matrix(1,0,0,1,200.228,116.913)"><path fill="#ced0de" fill-rule="evenodd" d="M79.41,3.248C79.41,3.248,79.41,4.825,79.41,4.825C79.41,0.354,75.792,-3.263,71.321,-3.263C71.321,-3.263,-71.322,-3.263,-71.322,-3.263C-75.792,-3.263,-79.41,0.354,-79.41,4.825C-79.41,4.825,-79.41,3.248,-79.41,3.248C-79.41,-1.208,-75.792,-4.825,-71.322,-4.825C-71.322,-4.825,71.321,-4.825,71.321,-4.825C75.792,-4.825,79.41,-1.208,79.41,3.248Z" /></g><g id="i9" transform="matrix(1,0,0,1,200.228,142.688)"><path fill="#ffffff" fill-rule="evenodd" d="M79.409,-20.95C79.409,-20.95,79.409,20.95,79.409,20.95C79.409,25.421,75.792,29.038,71.321,29.038C71.321,29.038,-71.322,29.038,-71.322,29.038C-75.792,29.038,-79.41,25.421,-79.41,20.95C-79.41,20.95,-79.41,-20.95,-79.41,-20.95C-79.41,-25.421,-75.792,-29.038,-71.322,-29.038C-71.322,-29.038,71.321,-29.038,71.321,-29.038C75.792,-29.038,79.409,-25.421,79.409,-20.95Z" /></g><g id="i10" transform="matrix(1,0,0,1,200.299,121.579)"><path fill="#9298bd" fill-rule="evenodd" d="M-72.514,1.177C-72.514,1.177,72.514,1.177,72.514,1.177C72.514,-0.123,71.46,-1.177,70.16,-1.177C70.16,-1.177,-70.16,-1.177,-70.16,-1.177C-71.46,-1.177,-72.514,-0.123,-72.514,1.177Z" /></g><g id="i11" transform="matrix(1,0,0,1,200.299,143.8)"><path fill="#9298bd" fill-rule="evenodd" d="M-70.16,21.045C-70.16,21.045,70.159,21.045,70.159,21.045C71.46,21.045,72.514,19.991,72.514,18.691C72.514,18.691,72.514,-21.044,72.514,-21.044C72.514,-21.044,-72.514,-21.044,-72.514,-21.044C-72.514,-21.044,-72.514,18.691,-72.514,18.691C-72.514,19.991,-71.46,21.045,-70.16,21.045Z" /></g><g id="i12" transform="matrix(1,0,0,1,139.855,205.484)"><path fill="#ced0de" fill-rule="evenodd" d="M-15.844,0C-15.844,-8.75,-8.75,-15.844,0,-15.844C8.75,-15.844,15.844,-8.75,15.844,0C15.844,8.75,8.75,15.844,0,15.844C-8.75,15.844,-15.844,8.75,-15.844,0Z" /></g><g id="i13" transform="matrix(1,0,0,1,139.855,205.484)"><path fill="#cfd1df" fill-rule="evenodd" d="M-14.49,0C-14.49,-8.003,-8.002,-14.491,0.001,-14.491C8.004,-14.491,14.491,-8.003,14.491,0C14.491,8.003,8.004,14.491,0.001,14.491C-8.002,14.491,-14.49,8.003,-14.49,0Z" /></g><g id="i14" transform="matrix(1,0,0,1,180.261,205.484)"><path fill="#ced0de" fill-rule="evenodd" d="M-15.844,0C-15.844,-8.75,-8.75,-15.844,0,-15.844C8.75,-15.844,15.844,-8.75,15.844,0C15.844,8.75,8.75,15.844,0,15.844C-8.75,15.844,-15.844,8.75,-15.844,0Z" /></g><g id="i15" transform="matrix(1,0,0,1,180.26,205.484)"><path fill="#cfd1df" fill-rule="evenodd" d="M-14.491,0C-14.491,-8.003,-8.003,-14.491,0,-14.491C8.003,-14.491,14.49,-8.003,14.49,0C14.49,8.003,8.003,14.491,0,14.491C-8.003,14.491,-14.491,8.003,-14.491,0Z" /></g><g id="i16" transform="matrix(1,0,0,1,220.436,205.484)"><path fill="#ced0de" fill-rule="evenodd" d="M-15.844,0C-15.844,-8.75,-8.75,-15.844,0,-15.844C8.75,-15.844,15.844,-8.75,15.844,0C15.844,8.75,8.75,15.844,0,15.844C-8.75,15.844,-15.844,8.75,-15.844,0Z" /></g><g id="i17" transform="matrix(1,0,0,1,220.435,205.484)"><path fill="#cfd1df" fill-rule="evenodd" d="M-14.491,0C-14.491,-8.003,-8.003,-14.491,0,-14.491C8.003,-14.491,14.49,-8.003,14.49,0C14.49,8.003,8.003,14.491,0,14.491C-8.003,14.491,-14.491,8.003,-14.491,0Z" /></g><g id="i18" transform="matrix(1,0,0,1,260.841,205.484)"><path fill="#ced0de" fill-rule="evenodd" d="M-15.844,0C-15.844,-8.75,-8.751,-15.844,0,-15.844C8.75,-15.844,15.844,-8.75,15.844,0C15.844,8.75,8.75,15.844,0,15.844C-8.751,15.844,-15.844,8.75,-15.844,0Z" /></g><g id="i19" transform="matrix(1,0,0,1,260.841,205.484)"><path fill="#cfd1df" fill-rule="evenodd" d="M-14.49,0C-14.49,-8.003,-8.002,-14.491,0.001,-14.491C8.004,-14.491,14.491,-8.003,14.491,0C14.491,8.003,8.004,14.491,0.001,14.491C-8.002,14.491,-14.49,8.003,-14.49,0Z" /></g><g id="i20" transform="matrix(1,0,0,1,139.855,245.728)"><path fill="#ced0de" fill-rule="evenodd" d="M-15.844,0C-15.844,-8.75,-8.75,-15.844,0,-15.844C8.75,-15.844,15.844,-8.75,15.844,0C15.844,8.75,8.75,15.844,0,15.844C-8.75,15.844,-15.844,8.75,-15.844,0Z" /></g><g id="i21" transform="matrix(1,0,0,1,139.855,245.728)"><path fill="#cfd1df" fill-rule="evenodd" d="M-14.49,0C-14.49,-8.003,-8.002,-14.491,0.001,-14.491C8.004,-14.491,14.491,-8.003,14.491,0C14.491,8.003,8.004,14.491,0.001,14.491C-8.002,14.491,-14.49,8.003,-14.49,0Z" /></g><g id="i22" transform="matrix(1,0,0,1,180.261,245.728)"><path fill="#ced0de" fill-rule="evenodd" d="M-15.844,0C-15.844,-8.75,-8.75,-15.844,0,-15.844C8.75,-15.844,15.844,-8.75,15.844,0C15.844,8.75,8.75,15.844,0,15.844C-8.75,15.844,-15.844,8.75,-15.844,0Z" /></g><g id="i23" transform="matrix(1,0,0,1,180.26,245.728)"><path fill="#cfd1df" fill-rule="evenodd" d="M-14.491,0C-14.491,-8.003,-8.003,-14.491,0,-14.491C8.003,-14.491,14.49,-8.003,14.49,0C14.49,8.003,8.003,14.491,0,14.491C-8.003,14.491,-14.491,8.003,-14.491,0Z" /></g><g id="i24" transform="matrix(1,0,0,1,220.436,245.728)"><path fill="#ced0de" fill-rule="evenodd" d="M-15.844,0C-15.844,-8.75,-8.75,-15.844,0,-15.844C8.75,-15.844,15.844,-8.75,15.844,0C15.844,8.75,8.75,15.844,0,15.844C-8.75,15.844,-15.844,8.75,-15.844,0Z" /></g><g id="i25" transform="matrix(1,0,0,1,220.435,245.728)"><path fill="#cfd1df" fill-rule="evenodd" d="M-14.491,0C-14.491,-8.003,-8.003,-14.491,0,-14.491C8.003,-14.491,14.49,-8.003,14.49,0C14.49,8.003,8.003,14.491,0,14.491C-8.003,14.491,-14.491,8.003,-14.491,0Z" /></g><g id="i26" transform="matrix(1,0,0,1,260.841,245.728)"><path fill="#ced0de" fill-rule="evenodd" d="M-15.844,0C-15.844,-8.75,-8.751,-15.844,0,-15.844C8.75,-15.844,15.844,-8.75,15.844,0C15.844,8.75,8.75,15.844,0,15.844C-8.751,15.844,-15.844,8.75,-15.844,0Z" /></g><g id="i27" transform="matrix(1,0,0,1,260.841,245.728)"><path fill="#cfd1df" fill-rule="evenodd" d="M-14.49,0C-14.49,-8.003,-8.002,-14.491,0.001,-14.491C8.004,-14.491,14.491,-8.003,14.491,0C14.491,8.003,8.004,14.491,0.001,14.491C-8.002,14.491,-14.49,8.003,-14.49,0Z" /></g><g id="i28" transform="matrix(1,0,0,1,139.855,285.972)"><path fill="#ced0de" fill-rule="evenodd" d="M-15.844,0C-15.844,-8.75,-8.75,-15.844,0,-15.844C8.75,-15.844,15.844,-8.75,15.844,0C15.844,8.75,8.75,15.844,0,15.844C-8.75,15.844,-15.844,8.75,-15.844,0Z" /></g><g id="i29" transform="matrix(1,0,0,1,139.855,285.972)"><path fill="#cfd1df" fill-rule="evenodd" d="M-14.49,0C-14.49,-8.003,-8.002,-14.491,0.001,-14.491C8.004,-14.491,14.491,-8.003,14.491,0C14.491,8.003,8.004,14.491,0.001,14.491C-8.002,14.491,-14.49,8.003,-14.49,0Z" /></g><g id="i30" transform="matrix(1,0,0,1,180.261,285.972)"><path fill="#ced0de" fill-rule="evenodd" d="M-15.844,0C-15.844,-8.75,-8.75,-15.844,0,-15.844C8.75,-15.844,15.844,-8.75,15.844,0C15.844,8.75,8.75,15.844,0,15.844C-8.75,15.844,-15.844,8.75,-15.844,0Z" /></g><g id="i31" transform="matrix(1,0,0,1,180.26,285.972)"><path fill="#cfd1df" fill-rule="evenodd" d="M-14.491,0C-14.491,-8.003,-8.003,-14.491,0,-14.491C8.003,-14.491,14.49,-8.003,14.49,0C14.49,8.003,8.003,14.491,0,14.491C-8.003,14.491,-14.491,8.003,-14.491,0Z" /></g><g id="i32" transform="matrix(1,0,0,1,220.436,285.972)"><path fill="#ced0de" fill-rule="evenodd" d="M-15.844,0C-15.844,-8.75,-8.75,-15.844,0,-15.844C8.75,-15.844,15.844,-8.75,15.844,0C15.844,8.75,8.75,15.844,0,15.844C-8.75,15.844,-15.844,8.75,-15.844,0Z" /></g><g id="i33" transform="matrix(1,0,0,1,220.435,285.972)"><path fill="#cfd1df" fill-rule="evenodd" d="M-14.491,0C-14.491,-8.003,-8.003,-14.491,0,-14.491C8.003,-14.491,14.49,-8.003,14.49,0C14.49,8.003,8.003,14.491,0,14.491C-8.003,14.491,-14.491,8.003,-14.491,0Z" /></g><g id="i34" transform="matrix(1,0,0,1,260.841,285.972)"><path fill="#ced0de" fill-rule="evenodd" d="M-15.844,0C-15.844,-8.75,-8.751,-15.844,0,-15.844C8.75,-15.844,15.844,-8.75,15.844,0C15.844,8.75,8.75,15.844,0,15.844C-8.751,15.844,-15.844,8.75,-15.844,0Z" /></g><g id="i35" transform="matrix(1,0,0,1,260.841,285.972)"><path fill="#cfd1df" fill-rule="evenodd" d="M-14.49,0C-14.49,-8.003,-8.002,-14.491,0.001,-14.491C8.004,-14.491,14.491,-8.003,14.491,0C14.491,8.003,8.004,14.491,0.001,14.491C-8.002,14.491,-14.49,8.003,-14.49,0Z" /></g><g id="i36" transform="matrix(1,0,0,1,139.855,326.216)"><path fill="#ced0de" fill-rule="evenodd" d="M-15.844,0C-15.844,-8.75,-8.75,-15.844,0,-15.844C8.75,-15.844,15.844,-8.75,15.844,0C15.844,8.75,8.75,15.844,0,15.844C-8.75,15.844,-15.844,8.75,-15.844,0Z" /></g><g id="i37" transform="matrix(1,0,0,1,139.855,326.216)"><path fill="#cfd1df" fill-rule="evenodd" d="M-14.49,0C-14.49,-8.003,-8.002,-14.491,0.001,-14.491C8.004,-14.491,14.491,-8.003,14.491,0C14.491,8.003,8.004,14.491,0.001,14.491C-8.002,14.491,-14.49,8.003,-14.49,0Z" /></g><g id="i38" transform="matrix(1,0,0,1,180.261,326.216)"><path fill="#ced0de" fill-rule="evenodd" d="M-15.844,0C-15.844,-8.75,-8.75,-15.844,0,-15.844C8.75,-15.844,15.844,-8.75,15.844,0C15.844,8.75,8.75,15.844,0,15.844C-8.75,15.844,-15.844,8.75,-15.844,0Z" /></g><g id="i39" transform="matrix(1,0,0,1,180.26,326.216)"><path fill="#cfd1df" fill-rule="evenodd" d="M-14.491,0C-14.491,-8.003,-8.003,-14.491,0,-14.491C8.003,-14.491,14.49,-8.003,14.49,0C14.49,8.003,8.003,14.491,0,14.491C-8.003,14.491,-14.491,8.003,-14.491,0Z" /></g><g id="i40" transform="matrix(1,0,0,1,220.436,326.216)"><path fill="#ced0de" fill-rule="evenodd" d="M-15.844,0C-15.844,-8.75,-8.75,-15.844,0,-15.844C8.75,-15.844,15.844,-8.75,15.844,0C15.844,8.75,8.75,15.844,0,15.844C-8.75,15.844,-15.844,8.75,-15.844,0Z" /></g><g id="i41" transform="matrix(1,0,0,1,220.435,326.216)"><path fill="#cfd1df" fill-rule="evenodd" d="M-14.491,0C-14.491,-8.003,-8.003,-14.491,0,-14.491C8.003,-14.491,14.49,-8.003,14.49,0C14.49,8.003,8.003,14.491,0,14.491C-8.003,14.491,-14.491,8.003,-14.491,0Z" /></g><g id="i42" transform="matrix(1,0,0,1,260.841,326.216)"><path fill="#ced0de" fill-rule="evenodd" d="M-15.844,0C-15.844,-8.75,-8.751,-15.844,0,-15.844C8.75,-15.844,15.844,-8.75,15.844,0C15.844,8.75,8.75,15.844,0,15.844C-8.751,15.844,-15.844,8.75,-15.844,0Z" /></g><g id="i43" transform="matrix(1,0,0,1,260.841,326.216)"><path fill="#cfd1df" fill-rule="evenodd" d="M-14.49,0C-14.49,-8.003,-8.002,-14.491,0.001,-14.491C8.004,-14.491,14.491,-8.003,14.491,0C14.491,8.003,8.004,14.491,0.001,14.491C-8.002,14.491,-14.49,8.003,-14.49,0Z" /></g><g id="i44" transform="matrix(1,0,0,1,168.259,41.181)"><path d="" /></g><g id="i45" transform="matrix(1,0,0,1,189.655,41.156)"><path d="" /></g><g id="i46" transform="matrix(1,0,0,1,211.154,41.137)"><path d="" /></g><g id="i1" transform="matrix(1,0,0,1,232.616,41.115)"><path d="" /></g></g><g visibility="hidden" id="i47"><animate repeatCount="indefinite" begin="0s" calcMode="discrete" dur="2.336s" values="hidden; visible; hidden; hidden" keyTimes="0; 0.314044; 0.786111; 1" attributeName="visibility" /><animate repeatCount="indefinite" attributeName="opacity" dur="2.336s" begin="0s" fill="freeze" values="1; 1; 0; 0" keyTimes="0; 0.714286; 0.771429; 1" keySplines="0 0 1 1; 0 0 1 1; 0 0 1 1" calcMode="spline" /><g transform="translate(-159.953,585.67)"><animateTransform repeatCount="indefinite" type="translate" attributeName="transform" dur="2.336s" begin="0s" calcMode="spline" values="-159.953 585.67; -159.953 585.67; 170.047 213.87; 170.047 213.87" keyTimes="0; 0.314286; 0.657143; 1" keySplines="0 0 1 1; 0.167 0.176 0.08 1; 0 0 1 1" fill="freeze" /><g transform="rotate(135)"><g transform="scale(0.722,0.722)"><animateTransform repeatCount="indefinite" type="scale" attributeName="transform" dur="2.336s" begin="0s" calcMode="spline" values="0.722 0.722; 0.722 0.722; 0.623 0.623; 0.623 0.623" keyTimes="0; 0.357143; 0.571429; 1" keySplines="0 0 1 1; 0.167 0.25 0.77 1; 0 0 1 1" fill="freeze" /><g transform="translate(-200,-200)"><g id="i1" transform="matrix(1,0,0,1,200,200)"><path fill="#121e6c" fill-rule="evenodd" d="M105.642,89.096C105.642,89.096,-105.642,89.096,-105.642,89.096C-118.825,89.096,-129.512,78.409,-129.512,65.226C-129.512,65.226,-129.512,-65.226,-129.512,-65.226C-129.512,-78.409,-118.825,-89.096,-105.642,-89.096C-105.642,-89.096,105.642,-89.096,105.642,-89.096C118.825,-89.096,129.512,-78.409,129.512,-65.226C129.512,-65.226,129.512,65.226,129.512,65.226C129.512,78.409,118.825,89.096,105.642,89.096Z" /></g><g id="i2" transform="matrix(1,0,0,1,167.097,199.886)"><path fill="#6c759b" fill-rule="evenodd" d="M8.521,20.241C8.175,20.245,7.824,20.141,7.523,19.922C6.782,19.381,6.62,18.342,7.161,17.601C10.401,13.162,12.213,6.517,12.133,-0.631C12.061,-7.005,10.431,-13.137,7.658,-17.454C7.162,-18.226,7.386,-19.254,8.158,-19.75C8.93,-20.245,9.958,-20.022,10.454,-19.25C13.6,-14.35,15.376,-7.751,15.456,-0.668C15.544,7.181,13.499,14.554,9.845,19.559C9.524,19.999,9.027,20.235,8.521,20.241ZM2.449,15.767C5.604,11.442,7.303,5.639,7.233,-0.575C7.17,-6.129,5.659,-11.445,2.976,-15.544C2.474,-16.312,1.444,-16.527,0.676,-16.025C-0.091,-15.522,-0.306,-14.493,0.196,-13.725C2.536,-10.149,3.855,-5.466,3.911,-0.538C3.972,4.885,2.461,10.114,-0.235,13.809C-0.775,14.551,-0.613,15.59,0.128,16.13C0.429,16.35,0.779,16.453,1.125,16.449C1.631,16.444,2.128,16.208,2.449,15.767ZM-5.031,11.906C-2.576,8.438,-1.251,4.039,-1.302,-0.479C-1.349,-4.589,-2.49,-8.491,-4.602,-11.762C-5.1,-12.533,-6.127,-12.754,-6.898,-12.257C-7.669,-11.759,-7.89,-10.731,-7.392,-9.96C-5.621,-7.216,-4.664,-3.925,-4.624,-0.442C-4.581,3.382,-5.689,7.085,-7.743,9.986C-8.273,10.735,-8.096,11.772,-7.347,12.302C-7.05,12.512,-6.708,12.611,-6.37,12.608C-5.855,12.602,-5.351,12.358,-5.031,11.906ZM-12.475,8.321C-10.204,5.846,-8.973,2.751,-9.008,-0.393C-9.04,-3.251,-10.08,-5.985,-12.015,-8.298C-12.604,-9.002,-13.651,-9.095,-14.355,-8.507C-15.059,-7.918,-15.152,-6.87,-14.563,-6.167C-13.126,-4.448,-12.354,-2.439,-12.33,-0.355C-12.304,1.974,-13.2,4.197,-14.923,6.075C-15.543,6.751,-15.498,7.802,-14.822,8.422C-14.498,8.719,-14.088,8.864,-13.681,8.859C-13.238,8.854,-12.798,8.673,-12.475,8.321Z" /></g><g id="i3" transform="matrix(1,0,0,1,114.978,200)"><path fill="#6c759b" fill-rule="evenodd" d="M5.967,-10.095C5.967,-10.095,17.601,-10.076,17.601,-10.076C16.502,-14.549,12.481,-17.874,7.669,-17.882C7.669,-17.882,5.98,-17.885,5.98,-17.885C5.98,-17.885,5.967,-10.095,5.967,-10.095ZM5.951,-1.072C5.951,-1.072,17.897,-1.051,17.897,-1.051C17.897,-1.051,17.908,-7.606,17.908,-7.606C17.908,-7.606,5.963,-7.626,5.963,-7.626C5.963,-7.626,5.951,-1.072,5.951,-1.072ZM5.936,7.861C9.713,7.917,14.515,7.969,17.866,7.973C17.869,7.871,17.882,7.772,17.882,7.669C17.882,7.669,17.892,1.417,17.892,1.417C17.892,1.417,5.947,1.396,5.947,1.396C5.947,1.396,5.936,7.861,5.936,7.861ZM-17.567,-10.135C-17.567,-10.135,-4.457,-10.113,-4.457,-10.113C-3.776,-10.111,-3.224,-9.558,-3.225,-8.876C-3.225,-8.876,-3.271,17.889,-3.271,17.889C-3.271,17.889,7.608,17.909,7.608,17.909C12.305,17.917,16.261,14.761,17.484,10.454C17.39,10.454,17.308,10.454,17.211,10.454C14.553,10.45,10.601,10.403,4.68,10.311C4.597,10.31,4.524,10.277,4.445,10.26C4.366,10.243,4.283,10.24,4.21,10.208C4.139,10.177,4.084,10.122,4.02,10.079C3.953,10.033,3.878,9.999,3.82,9.941C3.766,9.885,3.734,9.812,3.691,9.747C3.646,9.68,3.591,9.622,3.56,9.547C3.528,9.47,3.526,9.381,3.51,9.297C3.496,9.222,3.465,9.153,3.466,9.075C3.466,9.075,3.512,-17.889,3.512,-17.889C3.512,-17.889,-7.609,-17.908,-7.609,-17.908C-12.421,-17.916,-16.454,-14.604,-17.567,-10.135ZM-17.894,-1.113C-17.894,-1.113,-5.707,-1.091,-5.707,-1.091C-5.707,-1.091,-5.696,-7.646,-5.696,-7.646C-5.696,-7.646,-17.883,-7.667,-17.883,-7.667C-17.883,-7.667,-17.894,-1.113,-17.894,-1.113ZM-17.908,7.2C-17.908,7.2,-5.721,7.221,-5.721,7.221C-5.721,7.221,-5.711,1.376,-5.711,1.376C-5.711,1.376,-17.898,1.355,-17.898,1.355C-17.898,1.355,-17.908,7.2,-17.908,7.2ZM-17.705,9.669C-16.759,14.348,-12.629,17.874,-7.67,17.883C-7.67,17.883,-5.739,17.885,-5.739,17.885C-5.739,17.885,-5.725,9.689,-5.725,9.689C-5.725,9.689,-17.705,9.669,-17.705,9.669Z" /></g></g></g></g></g></g></svg>